<svg width="200" height="200" viewBox="0 0 200 200" fill="none" xmlns="http://www.w3.org/2000/svg">
  <rect width="200" height="200" rx="15" fill="#EEAF0C" />
  <path
    d="M48.6449 105.6C43.4449 105.6 40.8449 108.2 40.8449 113.4V118.6C40.8449 120.593 41.4083 122.197 42.5349 123.41C43.7483 124.537 45.3516 125.1 47.3449 125.1H66.8449C68.8383 125.1 70.3983 124.537 71.5249 123.41C72.7383 122.197 73.3449 120.593 73.3449 118.6V113.4C73.3449 108.2 70.7449 105.6 65.5449 105.6H48.6449ZM51.2449 67.9C46.0449 67.9 43.4449 70.5 43.4449 75.7V79.6C43.4449 84.8 46.0449 87.4 51.2449 87.4H62.9449C68.1449 87.4 70.7449 84.8 70.7449 79.6V75.7C70.7449 70.5 68.1449 67.9 62.9449 67.9H51.2449ZM96.7449 118.6C96.7449 127.093 94.7516 133.333 90.7649 137.32C86.7783 141.307 80.5383 143.3 72.0449 143.3H42.1449C33.6516 143.3 27.4116 141.307 23.4249 137.32C19.4383 133.333 17.4449 127.093 17.4449 118.6V117.3C17.4449 110.713 19.0916 105.253 22.3849 100.92C24.9849 97.4533 28.5383 95.1133 33.0449 93.9C29.1449 92.6 25.9816 90.3467 23.5549 87.14C21.2149 83.8467 20.0449 79.6 20.0449 74.4V73.1C20.0449 65.2133 22.0383 59.3633 26.0249 55.55C30.0116 51.65 36.2516 49.7 44.7449 49.7H69.4449C77.9383 49.7 84.1783 51.65 88.1649 55.55C92.1516 59.3633 94.1449 65.2133 94.1449 73.1V74.4C94.1449 79.6 92.9316 83.8467 90.5049 87.14C88.1649 90.3467 85.0449 92.6 81.1449 93.9C88.1649 95.8067 92.9316 100.487 95.4449 107.94C96.3116 110.627 96.7449 113.747 96.7449 117.3V118.6ZM161.085 51H187.085L157.835 96.5L187.735 142H161.735L143.535 113.4L125.335 142H99.3348L129.235 96.5L99.9848 51H125.855L143.535 79.6L161.085 51Z"
    fill="#010D16" />
  <path
    d="M42.5349 123.41L41.8021 124.09L41.8273 124.118L41.8545 124.143L42.5349 123.41ZM71.5249 123.41L70.8178 122.703L70.8178 122.703L71.5249 123.41ZM90.7649 137.32L90.0578 136.613L90.0578 136.613L90.7649 137.32ZM23.4249 137.32L24.132 136.613L24.132 136.613L23.4249 137.32ZM22.3849 100.92L23.1811 101.525L23.1849 101.52L22.3849 100.92ZM33.0449 93.9L33.3049 94.8656L36.5129 94.0019L33.3612 92.9513L33.0449 93.9ZM23.5549 87.14L22.7397 87.7192L22.7484 87.7315L22.7575 87.7434L23.5549 87.14ZM26.0249 55.55L26.7162 56.2727L26.7242 56.2648L26.0249 55.55ZM88.1649 55.55L87.4656 56.2649L87.4737 56.2726L88.1649 55.55ZM90.5049 87.14L89.6999 86.5468L89.6971 86.5505L90.5049 87.14ZM81.1449 93.9L80.8287 92.9513L77.6895 93.9977L80.8828 94.865L81.1449 93.9ZM95.4449 107.94L96.3967 107.633L96.3925 107.62L95.4449 107.94ZM48.6449 104.6C45.8908 104.6 43.6415 105.289 42.0878 106.843C40.5341 108.397 39.8449 110.646 39.8449 113.4H41.8449C41.8449 110.954 42.4557 109.303 43.502 108.257C44.5484 107.211 46.1991 106.6 48.6449 106.6V104.6ZM39.8449 113.4V118.6H41.8449V113.4H39.8449ZM39.8449 118.6C39.8449 120.791 40.47 122.656 41.8021 124.09L43.2677 122.73C42.3466 121.738 41.8449 120.395 41.8449 118.6H39.8449ZM41.8545 124.143C43.2891 125.475 45.1536 126.1 47.3449 126.1V124.1C45.5496 124.1 44.2074 123.598 43.2154 122.677L41.8545 124.143ZM47.3449 126.1H66.8449V124.1H47.3449V126.1ZM66.8449 126.1C69.0332 126.1 70.8734 125.476 72.232 124.117L70.8178 122.703C69.9232 123.598 68.6433 124.1 66.8449 124.1V126.1ZM72.232 124.117C73.6633 122.686 74.3449 120.812 74.3449 118.6H72.3449C72.3449 120.374 71.8132 121.708 70.8178 122.703L72.232 124.117ZM74.3449 118.6V113.4H72.3449V118.6H74.3449ZM74.3449 113.4C74.3449 110.646 73.6557 108.397 72.102 106.843C70.5483 105.289 68.2991 104.6 65.5449 104.6V106.6C67.9908 106.6 69.6415 107.211 70.6878 108.257C71.7341 109.303 72.3449 110.954 72.3449 113.4H74.3449ZM65.5449 104.6H48.6449V106.6H65.5449V104.6ZM51.2449 66.9C48.4908 66.9 46.2415 67.5892 44.6878 69.1429C43.1341 70.6966 42.4449 72.9458 42.4449 75.7H44.4449C44.4449 73.2541 45.0557 71.6034 46.102 70.5571C47.1484 69.5108 48.7991 68.9 51.2449 68.9V66.9ZM42.4449 75.7V79.6H44.4449V75.7H42.4449ZM42.4449 79.6C42.4449 82.3541 43.1341 84.6034 44.6878 86.1571C46.2415 87.7108 48.4908 88.4 51.2449 88.4V86.4C48.7991 86.4 47.1484 85.7892 46.102 84.7429C45.0557 83.6966 44.4449 82.0459 44.4449 79.6H42.4449ZM51.2449 88.4H62.9449V86.4H51.2449V88.4ZM62.9449 88.4C65.6991 88.4 67.9484 87.7108 69.502 86.1571C71.0557 84.6034 71.7449 82.3541 71.7449 79.6H69.7449C69.7449 82.0459 69.1341 83.6966 68.0878 84.7429C67.0415 85.7892 65.3908 86.4 62.9449 86.4V88.4ZM71.7449 79.6V75.7H69.7449V79.6H71.7449ZM71.7449 75.7C71.7449 72.9458 71.0557 70.6966 69.502 69.1429C67.9484 67.5892 65.6991 66.9 62.9449 66.9V68.9C65.3908 68.9 67.0415 69.5108 68.0878 70.5571C69.1341 71.6034 69.7449 73.2541 69.7449 75.7H71.7449ZM62.9449 66.9H51.2449V68.9H62.9449V66.9ZM95.7449 118.6C95.7449 126.961 93.7804 132.89 90.0578 136.613L91.472 138.027C95.7228 133.776 97.7449 127.226 97.7449 118.6H95.7449ZM90.0578 136.613C86.3352 140.335 80.4055 142.3 72.0449 142.3V144.3C80.671 144.3 87.2213 142.278 91.472 138.027L90.0578 136.613ZM72.0449 142.3H42.1449V144.3H72.0449V142.3ZM42.1449 142.3C33.7843 142.3 27.8546 140.335 24.132 136.613L22.7178 138.027C26.9685 142.278 33.5189 144.3 42.1449 144.3V142.3ZM24.132 136.613C20.4094 132.89 18.4449 126.961 18.4449 118.6H16.4449C16.4449 127.226 18.4671 133.776 22.7178 138.027L24.132 136.613ZM18.4449 118.6V117.3H16.4449V118.6H18.4449ZM18.4449 117.3C18.4449 110.885 20.046 105.65 23.1811 101.525L21.5888 100.315C18.1372 104.856 16.4449 110.542 16.4449 117.3H18.4449ZM23.1849 101.52C25.6402 98.2463 28.9963 96.0256 33.3049 94.8656L32.7849 92.9344C28.0802 94.201 24.3296 96.6604 21.5849 100.32L23.1849 101.52ZM33.3612 92.9513C29.6482 91.7137 26.6543 89.5784 24.3523 86.5366L22.7575 87.7434C25.3089 91.1149 28.6417 93.4863 32.7287 94.8487L33.3612 92.9513ZM24.3701 86.5608C22.1807 83.4795 21.0449 79.452 21.0449 74.4H19.0449C19.0449 79.748 20.2491 84.2139 22.7397 87.7192L24.3701 86.5608ZM21.0449 74.4V73.1H19.0449V74.4H21.0449ZM21.0449 73.1C21.0449 65.3674 22.9987 59.8285 26.7161 56.2726L25.3337 54.8274C21.0778 58.8982 19.0449 65.0593 19.0449 73.1H21.0449ZM26.7242 56.2648C30.4463 52.6237 36.3792 50.7 44.7449 50.7V48.7C36.124 48.7 29.5769 50.6763 25.3256 54.8352L26.7242 56.2648ZM44.7449 50.7H69.4449V48.7H44.7449V50.7ZM69.4449 50.7C77.8107 50.7 83.7435 52.6237 87.4656 56.2648L88.8642 54.8352C84.613 50.6763 78.0658 48.7 69.4449 48.7V50.7ZM87.4737 56.2726C91.1912 59.8285 93.1449 65.3674 93.1449 73.1H95.1449C95.1449 65.0593 93.112 58.8982 88.8561 54.8274L87.4737 56.2726ZM93.1449 73.1V74.4H95.1449V73.1H93.1449ZM93.1449 74.4C93.1449 79.4448 91.9692 83.467 89.6999 86.5468L91.31 87.7332C93.894 84.2264 95.1449 79.7552 95.1449 74.4H93.1449ZM89.6971 86.5505C87.4842 89.583 84.539 91.7146 80.8287 92.9513L81.4612 94.8487C85.5509 93.4854 88.8456 91.1103 91.3127 87.7295L89.6971 86.5505ZM80.8828 94.865C87.5512 96.6762 92.0803 101.092 94.4974 108.26L96.3925 107.62C93.7829 99.8816 88.7787 94.9371 81.407 92.935L80.8828 94.865ZM94.4932 108.247C95.3209 110.813 95.7449 113.825 95.7449 117.3H97.7449C97.7449 113.668 97.3023 110.441 96.3966 107.633L94.4932 108.247ZM95.7449 117.3V118.6H97.7449V117.3H95.7449ZM161.085 51V50H160.525L160.232 50.477L161.085 51ZM187.085 51L187.926 51.5408L188.916 50H187.085V51ZM157.835 96.5L156.994 95.9592L156.642 96.506L156.999 97.0492L157.835 96.5ZM187.735 142V143H189.589L188.57 141.451L187.735 142ZM161.735 142L160.891 142.537L161.186 143H161.735V142ZM143.535 113.4L144.378 112.863L143.535 111.537L142.691 112.863L143.535 113.4ZM125.335 142V143H125.884L126.178 142.537L125.335 142ZM99.3348 142L98.4991 141.451L97.481 143H99.3348V142ZM129.235 96.5L130.07 97.0492L130.427 96.506L130.076 95.9592L129.235 96.5ZM99.9848 51V50H98.1531L99.1436 51.5408L99.9848 51ZM125.855 51L126.705 50.4742L126.412 50H125.855V51ZM143.535 79.6L142.684 80.1258L143.538 81.5069L144.387 80.123L143.535 79.6ZM161.085 52H187.085V50H161.085V52ZM186.244 50.4592L156.994 95.9592L158.676 97.0408L187.926 51.5408L186.244 50.4592ZM156.999 97.0492L186.899 142.549L188.57 141.451L158.67 95.9508L156.999 97.0492ZM187.735 141H161.735V143H187.735V141ZM162.578 141.463L144.378 112.863L142.691 113.937L160.891 142.537L162.578 141.463ZM142.691 112.863L124.491 141.463L126.178 142.537L144.378 113.937L142.691 112.863ZM125.335 141H99.3348V143H125.335V141ZM100.17 142.549L130.07 97.0492L128.399 95.9508L98.4991 141.451L100.17 142.549ZM130.076 95.9592L100.826 50.4592L99.1436 51.5408L128.394 97.0408L130.076 95.9592ZM99.9848 52H125.855V50H99.9848V52ZM125.004 51.5258L142.684 80.1258L144.385 79.0742L126.705 50.4742L125.004 51.5258ZM144.387 80.123L161.937 51.523L160.232 50.477L142.682 79.077L144.387 80.123Z"
    fill="black" />
  <rect x="15" y="59" width="175" height="2" fill="#EEAF0C" />
  <rect x="15" y="71" width="175" height="3" fill="#EEAF0C" />
  <rect x="15" y="84" width="175" height="4" fill="#EEAF0C" />
  <rect x="15" y="98" width="175" height="5" fill="#EEAF0C" />
  <rect x="15" y="113" width="175" height="6" fill="#EEAF0C" />
  <rect x="15" y="129" width="175" height="7" fill="#EEAF0C" />
</svg>